<?xml version="1.0" encoding="utf-8"?>
<!-- Generator: Adobe Illustrator 24.1.0, SVG Export Plug-In . SVG Version: 6.00 Build 0)  -->
<svg version="1.1" id="Layer_1" xmlns="http://www.w3.org/2000/svg" xmlns:xlink="http://www.w3.org/1999/xlink" x="0px" y="0px"
	 viewBox="0 0 447 105.6" style="enable-background:new 0 0 447 105.6;" xml:space="preserve">
<style type="text/css">
	.st0{fill:#EF4239;}
	.st1{fill:#FFFFFF;}
	.st2{fill:#EF4339;}
</style>
<g>
	<path class="st0" d="M35.6,8.9c0.1,0,0.2-0.1,0.3-0.1c18-7.3,39.5-3.8,54.2,10.7c19.7,19.5,20,51.4,0.5,71.1s-51.4,20-71.1,0.5
		c-15-14.8-18.7-36.7-11.2-55L13,43l1,1.4c-3,13.1,0.5,27.4,10.8,37.5c15.7,15.5,41,15.3,56.4-0.4s15.3-41-0.4-56.4
		c-10.1-10-24.2-13.4-37.1-10.4L35.6,8.9z"/>
</g>
<path class="st0" d="M25.7,23.8L0.3,0L0,0.3l23.2,26l48.5,53.6c0.5,0.5,1.2,0.6,1.8,0.1c1.1-0.9,2.3-1.9,3.2-2.9
	c0.9-0.9,1.8-2,2.6-3c0.4-0.5,0.4-1.3-0.1-1.8L25.7,23.8z"/>
<path class="st0" d="M15.9,34.2l40.2,53c0.3,0.4,0.9,0.6,1.4,0.5c2.6-0.7,5.1-1.6,7.5-2.8c0.8-0.4,0.9-1.4,0.3-2L17,32.2l-9.2-9.5
	l-0.5,0.5L15.9,34.2z"/>
<path class="st0" d="M33.7,16.5l53,40.3c0.4,0.3,0.6,0.9,0.5,1.4c-0.7,2.6-1.6,5.1-2.8,7.5c-0.4,0.8-1.4,0.9-2,0.3L31.7,17.6
	l-9.5-9.2L22.7,8L33.7,16.5z"/>
<g>
	<path class="st1" d="M165.1,65.6L154.2,47h-8v18.6h-10.6V11.9h21.5c5,0,9.2,1.7,12.7,5.2s5.2,7.7,5.2,12.6c0,3.3-0.9,6.4-2.8,9.2
		c-1.9,2.8-4.4,5-7.5,6.4l11.9,20.3H165.1z M146.2,21.8v15.9h10.9c2,0,3.7-0.8,5.1-2.3c1.4-1.6,2.1-3.4,2.1-5.6s-0.7-4.1-2.1-5.6
		c-1.4-1.5-3.1-2.3-5.1-2.3L146.2,21.8L146.2,21.8z"/>
	<path class="st1" d="M189.2,50.5c1.3,4.8,4.9,7.2,10.8,7.2c3.8,0,6.6-1.3,8.6-3.8l8,4.6c-3.8,5.5-9.4,8.2-16.7,8.2
		c-6.3,0-11.4-1.9-15.3-5.8c-3.8-3.8-5.8-8.7-5.8-14.5s1.9-10.6,5.7-14.5s8.6-5.8,14.6-5.8c5.6,0,10.3,1.9,13.9,5.8
		c3.7,3.9,5.5,8.7,5.5,14.4c0,1.3-0.1,2.6-0.4,4.1h-28.9V50.5z M189.1,42.9h19.6c-0.6-2.6-1.7-4.6-3.5-5.8c-1.8-1.3-3.8-1.9-6-1.9
		c-2.7,0-4.9,0.7-6.6,2C190.8,38.5,189.6,40.4,189.1,42.9z"/>
	<path class="st1" d="M253.7,12.1h9.9v53.6h-9.9v-4.5c-2.9,3.7-7.1,5.6-12.4,5.6c-5.2,0-9.6-2-13.2-5.9c-3.7-3.9-5.5-8.7-5.5-14.4
		s1.8-10.5,5.5-14.4s8.1-5.9,13.2-5.9c5.4,0,9.5,1.9,12.4,5.6L253.7,12.1L253.7,12.1z M235.5,54.3c2,2,4.6,3,7.6,3s5.6-1,7.6-3
		s3-4.6,3-7.8s-1-5.8-3-7.8s-4.5-3-7.6-3s-5.6,1-7.6,3s-3,4.6-3,7.8C232.5,49.6,233.5,52.2,235.5,54.3z"/>
	<path class="st1" d="M283.2,55.5h22.6v10.1h-33.2V11.9h35.5L302.6,22h-19.5v11.4h20.3v10h-20.3v12.1H283.2z"/>
	<path class="st1" d="M341.3,27.3h9.9v38.4h-9.9v-4.5c-3,3.7-7.1,5.6-12.5,5.6c-5.1,0-9.5-2-13.2-5.9s-5.5-8.7-5.5-14.4
		s1.8-10.5,5.5-14.4s8-5.9,13.2-5.9c5.4,0,9.5,1.9,12.5,5.6V27.3z M323,54.3c2,2,4.5,3,7.6,3s5.6-1,7.6-3s3-4.6,3-7.8s-1-5.8-3-7.8
		s-4.6-3-7.6-3s-5.6,1-7.6,3s-3,4.6-3,7.8C320,49.6,321,52.2,323,54.3z"/>
	<path class="st1" d="M369.2,33.9c0.9-2.5,2.4-4.3,4.6-5.5c2.1-1.2,4.5-1.8,7.1-1.8v11c-3-0.4-5.7,0.3-8.1,1.8
		c-2.4,1.6-3.6,4.2-3.6,7.9v18.3h-9.9V27.3h9.9V33.9z"/>
	<path class="st1" d="M404.1,36.8h-8.7v16c0,1.3,0.3,2.3,1,2.9c0.7,0.6,1.6,1,2.9,1c1.3,0.1,2.9,0.1,4.8,0v9
		c-6.8,0.8-11.6,0.1-14.4-1.9s-4.2-5.7-4.2-11v-16l0,0v-9.5l0,0V12.1l9.9-0.1v15.3h8.7L404.1,36.8L404.1,36.8z"/>
	<path class="st1" d="M432.5,26.2c4.2,0,7.7,1.4,10.4,4.2c2.7,2.8,4.1,6.7,4.1,11.7v23.6h-9.9V43.3c0-2.6-0.7-4.5-2.1-5.9
		s-3.2-2-5.5-2c-2.6,0-4.6,0.8-6.1,2.4c-1.5,1.6-2.3,4-2.3,7.1v20.7h-9.9V12.1l9.9-0.1v19.6C423.4,28,427.2,26.2,432.5,26.2z"/>
</g>
<g>
	<polygon class="st2" points="135.7,98.8 135.7,83.2 145,83.2 143.8,85.8 138.4,85.8 138.4,89.7 144.5,89.7 144.5,92.2 138.4,92.2 
		138.4,96.2 145.2,96.2 145.2,98.8 	"/>
	<polygon class="st2" points="167.4,98.8 160.1,88.5 160.1,98.8 157.4,98.8 157.4,83.2 159.5,83.2 166.7,93.5 166.7,83.2 
		169.4,83.2 169.4,98.8 	"/>
	<polygon class="st2" points="182.2,98.8 182.2,83.2 191.5,83.2 190.3,85.8 184.9,85.8 184.9,89.7 191,89.7 191,92.2 184.9,92.2 
		184.9,96.2 191.7,96.2 191.7,98.8 	"/>
	<path class="st2" d="M212.7,98.8l-3.2-5.6h-2.8v5.6H204V83.2h6.2c1.4,0,2.6,0.5,3.6,1.5s1.5,2.2,1.5,3.6c0,0.9-0.3,1.8-0.8,2.6
		c-0.5,0.8-1.3,1.4-2.2,1.8l-0.2,0.1l3.5,5.9h-2.9V98.8z M206.7,90.9h3.5c0.7,0,1.2-0.3,1.7-0.8s0.7-1.1,0.7-1.8
		c0-0.7-0.2-1.3-0.7-1.8s-1-0.8-1.7-0.8h-3.5V90.9z"/>
	<path class="st2" d="M234.7,99.1c-2.4,0-4.4-0.8-6-2.4s-2.4-3.5-2.4-5.8s0.8-4.2,2.4-5.8c1.6-1.6,3.5-2.4,5.8-2.4
		c1.5,0,2.8,0.3,4,1c1.1,0.6,2,1.4,2.7,2.4l-2.3,1.3c-0.4-0.6-1-1.1-1.7-1.5c-0.8-0.4-1.7-0.6-2.7-0.6c-1.6,0-2.9,0.5-3.9,1.6
		c-1,1-1.5,2.4-1.5,4s0.5,2.9,1.6,3.9c1,1,2.4,1.5,4.1,1.5c1.3,0,2.3-0.3,3.2-0.9c0.8-0.6,1.4-1.4,1.7-2.4l0.1-0.3h-4.9v-2.4h7.6v1
		c0,2.2-0.7,4-2.1,5.4C238.8,98.4,237,99.1,234.7,99.1z"/>
	<polygon class="st2" points="257.2,98.8 257.2,92.7 251.9,83.2 255,83.2 258.6,90.2 262.2,83.2 265.3,83.2 259.9,92.7 259.9,98.8 	
		"/>
	<path class="st2" d="M296.8,99.1c-1.5,0-2.9-0.3-3.9-1c-1-0.6-1.7-1.5-2.1-2.6l2.3-1.4c0.7,1.6,2,2.4,3.8,2.4
		c0.9,0,1.6-0.2,2.1-0.5c0.5-0.4,0.7-0.8,0.7-1.4s-0.3-1.2-0.9-1.5c-0.5-0.3-1.4-0.7-2.8-1c-0.7-0.2-1.3-0.4-1.8-0.6s-1-0.5-1.5-0.8
		s-0.8-0.8-1.1-1.3c-0.2-0.5-0.4-1.1-0.4-1.8c0-1.4,0.5-2.5,1.5-3.3s2.2-1.2,3.6-1.2c1.3,0,2.4,0.3,3.3,0.9s1.6,1.4,2.1,2.4
		l-2.3,1.3c-0.7-1.3-1.8-2-3.2-2c-0.7,0-1.3,0.2-1.7,0.5c-0.4,0.3-0.6,0.8-0.6,1.3c0,0.6,0.2,1.1,0.7,1.4c0.4,0.3,1.3,0.7,2.5,1.1
		c0.5,0.2,0.9,0.3,1.1,0.4s0.6,0.2,1,0.4c0.4,0.2,0.8,0.3,1,0.5c0.2,0.1,0.5,0.3,0.8,0.6c0.3,0.2,0.5,0.5,0.7,0.7
		c0.1,0.3,0.3,0.6,0.4,0.9c0.1,0.4,0.2,0.8,0.2,1.2c0,1.4-0.5,2.5-1.5,3.4C299.8,98.7,298.5,99.1,296.8,99.1z"/>
	<polygon class="st2" points="317.3,98.8 317.3,85.8 312.9,85.8 312.9,83.2 324.3,83.2 324.3,85.8 320,85.8 320,98.8 	"/>
	<path class="st2" d="M342.6,99.1c-2.3,0-4.2-0.8-5.8-2.4c-1.6-1.6-2.4-3.5-2.4-5.8s0.8-4.2,2.4-5.8c1.6-1.6,3.5-2.4,5.8-2.4
		s4.2,0.8,5.8,2.4c1.6,1.6,2.4,3.5,2.4,5.8s-0.8,4.2-2.4,5.8C346.8,98.4,344.9,99.1,342.6,99.1z M342.6,85.5c-1.5,0-2.8,0.5-3.9,1.6
		c-1,1-1.6,2.4-1.6,3.9s0.5,2.9,1.6,3.9c1,1,2.3,1.5,3.9,1.5c1.5,0,2.8-0.5,3.9-1.5c1-1,1.6-2.4,1.6-3.9s-0.5-2.9-1.6-3.9
		C345.4,86,344.1,85.5,342.6,85.5z"/>
	<path class="st2" d="M371.4,98.8l-3.2-5.6h-2.8v5.6h-2.7V83.2h6.2c1.4,0,2.6,0.5,3.6,1.5s1.5,2.2,1.5,3.6c0,0.9-0.3,1.8-0.8,2.6
		c-0.5,0.8-1.3,1.4-2.2,1.8l-0.2,0.1l3.5,5.9h-2.9V98.8z M365.4,90.9h3.5c0.7,0,1.2-0.3,1.7-0.8s0.7-1.1,0.7-1.8
		c0-0.7-0.2-1.3-0.7-1.8s-1-0.8-1.7-0.8h-3.5V90.9z"/>
	<path class="st2" d="M396.9,98.8l-1-2.9H389l-1,2.9h-2.9l5.5-15.6h3.6l5.5,15.6H396.9z M389.8,93.4h5.2l-2.6-7.5L389.8,93.4z"/>
	<path class="st2" d="M417.9,99.1c-2.4,0-4.4-0.8-6-2.4s-2.4-3.5-2.4-5.8s0.8-4.2,2.4-5.8c1.6-1.6,3.5-2.4,5.8-2.4
		c1.5,0,2.8,0.3,4,1c1.1,0.6,2,1.4,2.7,2.4l-2.3,1.3c-0.4-0.6-1-1.1-1.7-1.5c-0.8-0.4-1.7-0.6-2.7-0.6c-1.6,0-2.9,0.5-3.9,1.6
		c-1,1-1.5,2.4-1.5,4s0.5,2.9,1.6,3.9c1,1,2.4,1.5,4.1,1.5c1.3,0,2.3-0.3,3.2-0.9c0.8-0.6,1.4-1.4,1.7-2.4l0.1-0.3h-4.9v-2.4h7.6v1
		c0,2.2-0.7,4-2.1,5.4C422,98.4,420.1,99.1,417.9,99.1z"/>
	<polygon class="st2" points="437.5,98.8 437.5,83.2 446.7,83.2 445.6,85.8 440.2,85.8 440.2,89.7 446.3,89.7 446.3,92.2 
		440.2,92.2 440.2,96.2 447,96.2 447,98.8 	"/>
</g>
</svg>
